<?xml version="1.0" standalone="no"?>
<!DOCTYPE svg PUBLIC "-//W3C//DTD SVG 20010904//EN"
 "http://www.w3.org/TR/2001/REC-SVG-20010904/DTD/svg10.dtd">
<svg version="1.0" xmlns="http://www.w3.org/2000/svg"
 width="600.000000pt" height="600.000000pt" viewBox="0 0 600.000000 600.000000"
 preserveAspectRatio="xMidYMid meet">

<g transform="translate(0.000000,600.000000) scale(0.100000,-0.100000)"
fill="#000000" stroke="none">
<path d="M3870 5751 l0 -249 108 -43 c589 -236 1079 -681 1368 -1244 132 -256
208 -482 261 -775 25 -136 27 -164 27 -440 0 -276 -2 -304 -27 -440 -53 -293
-129 -519 -261 -775 -289 -563 -779 -1008 -1368 -1244 l-108 -43 0 -249 0
-249 433 0 c237 0 486 5 552 10 335 28 618 170 840 421 129 147 231 353 277
559 l23 105 0 1905 0 1905 -23 105 c-94 427 -381 759 -787 910 -180 68 -314
80 -882 80 l-433 0 0 -249z"/>
<path d="M3920 5024 c0 -4 19 -30 43 -58 100 -117 212 -305 308 -515 l56 -124
134 -61 c216 -100 387 -205 527 -324 l54 -45 -55 109 c-204 405 -544 751 -950
964 -64 34 -117 58 -117 54z"/>
<path d="M3870 4579 l0 -115 72 -17 c39 -9 74 -15 76 -12 5 5 -70 143 -115
210 l-33 50 0 -116z"/>
<path d="M3870 3971 l0 -250 48 -6 c26 -4 115 -17 197 -29 83 -13 151 -22 153
-21 6 5 -56 258 -90 370 l-33 110 -120 37 c-66 20 -128 37 -137 37 -17 1 -18
-17 -18 -248z"/>
<path d="M4424 4022 c9 -15 73 -295 81 -358 l7 -52 122 -32 c164 -44 354 -113
454 -165 l82 -42 -26 46 c-90 156 -260 328 -454 458 -88 59 -276 162 -266 145z"/>
<path d="M3870 3000 l0 -550 24 0 c45 0 394 55 402 63 13 12 28 279 28 487 0
208 -15 475 -28 487 -8 8 -357 63 -402 63 l-24 0 0 -550z"/>
<path d="M4547 3337 c4 -56 8 -208 8 -337 0 -129 -4 -281 -8 -337 l-9 -102 74
20 c239 67 481 172 571 250 l47 41 0 128 0 128 -47 41 c-90 78 -332 183 -571
250 l-74 20 9 -102z"/>
<path d="M5095 2589 c-91 -50 -275 -118 -446 -164 l-137 -38 -7 -51 c-8 -63
-72 -343 -81 -358 -10 -17 178 86 266 145 154 103 288 228 386 357 38 50 101
152 92 149 -1 -1 -34 -19 -73 -40z"/>
<path d="M4110 2315 c-80 -13 -166 -26 -192 -30 l-48 -6 0 -250 c0 -231 1
-249 18 -248 9 0 71 17 137 37 l119 37 28 90 c25 81 76 278 93 363 4 17 3 31
-2 31 -4 -1 -73 -12 -153 -24z"/>
<path d="M4995 2064 c-120 -108 -320 -231 -534 -330 l-134 -61 -56 -124 c-96
-210 -208 -398 -308 -515 -24 -28 -43 -54 -43 -58 0 -14 233 115 330 181 136
94 220 166 337 284 122 124 183 199 276 339 56 84 185 321 175 320 -2 -1 -21
-17 -43 -36z"/>
<path d="M3933 1552 l-63 -16 0 -115 0 -116 33 50 c36 54 117 198 117 209 0 8
-12 6 -87 -12z"/>
</g>
</svg>
