<svg xmlns="http://www.w3.org/2000/svg" width="32" height="32"><path fill="#00e4ff" d="M-353.904 1357.862h7.404v15h-20v-15h3.469" color="#000" overflow="visible" style="isolation:auto;mix-blend-mode:normal" transform="translate(375 -1347.362)"/><path fill="none" d="M-353.904 1357.862h7.404v15h-24v-15h7.469" color="#000" overflow="visible" style="isolation:auto;mix-blend-mode:normal" transform="translate(375 -1347.362)"/><path fill="none" stroke="#000" stroke-linecap="square" stroke-linejoin="round" stroke-miterlimit="0" d="M-344.5 1372.862c0 1.108-1 2-2.24 2h-23.52c-1.241 0-2.24-.892-2.24-2z" color="#000" overflow="visible" style="isolation:auto;mix-blend-mode:normal" transform="translate(375 -1347.362)"/><path fill="#fff" d="M-370.5 1357.862v15h1.5v-15h-1.5z" color="#000" overflow="visible" style="isolation:auto;mix-blend-mode:normal" transform="translate(375 -1347.362)"/><path fill="#00a5ff" d="M-346.5 1372.862v-15h-20v2h17c.554 0 1 .446 1 1v12z" color="#000" overflow="visible" style="isolation:auto;mix-blend-mode:normal" transform="translate(375 -1347.362)"/><path fill="#fff" d="M-367 1372.862h20.5v-2H-367z" color="#000" overflow="visible" style="isolation:auto;mix-blend-mode:normal" transform="translate(375 -1347.362)"/><path fill="none" stroke="#000" stroke-linecap="round" stroke-linejoin="round" stroke-miterlimit="0" d="M-346.5 1366.362v-1m0-2v-5.5h-16.596m16.596 15v-4.5" color="#000" overflow="visible" style="isolation:auto;mix-blend-mode:normal" transform="translate(375 -1347.362)"/><path fill="#f4606e" d="M-344.5 1372.862c0 1.108-1 2-2.24 2h-23.52c-1.241 0-2.24-.892-2.24-2z" color="#000" overflow="visible" style="isolation:auto;mix-blend-mode:normal" transform="translate(375 -1347.362)"/><path fill="#fff" d="M-372.5 1372.862c0 1.108 1 2 2.24 2h1.5c-1.24 0-2.24-.892-2.24-2h-1.5z" color="#000" overflow="visible" style="isolation:auto;mix-blend-mode:normal" transform="translate(375 -1347.362)"/><path fill="#f89963" d="M-344.5 1372.862c0 1.108-1 2-2.24 2h-1.5c1.24 0 2.24-.892 2.24-2h1.5z" color="#000" overflow="visible" style="isolation:auto;mix-blend-mode:normal" transform="translate(375 -1347.362)"/><path fill="none" stroke="#000" stroke-linecap="square" stroke-linejoin="round" stroke-miterlimit="0" d="M-344.5 1372.862c0 1.108-1 2-2.24 2h-23.52c-1.241 0-2.24-.892-2.24-2z" color="#000" overflow="visible" style="isolation:auto;mix-blend-mode:normal" transform="translate(375 -1347.362)"/><path fill="#f8e71b" fill-rule="evenodd" d="M10.915 15.378v1.585c0 .678.36 1.305.945 1.648l3.332 1.953c.19.11.496.295.661.44.66.573 1.06 1.459 1.071 2.411V27.5h-16v-3.505c0-.249-.003-.653.028-.9a3.4 3.4 0 0 1 .901-1.939c.262-.272.792-.59 1.119-.781l2.611-1.53A2.718 2.718 0 0 0 6.927 16.5v-1.123z"/><path fill="#01d1ff" fill-rule="evenodd" d="m5 19.186-2.027 1.19c-.327.19-.858.508-1.12.78a3.396 3.396 0 0 0-.9 1.938c-.03.247-.03.651-.03.9V27.5h16v-4.086c-.01-.952-.41-1.836-1.07-2.41-.165-.144-.472-.33-.662-.441L13 19.279V20h-.033A4 4 0 0 1 7 22.965 4 4 0 0 1 5.033 20H5V19.186z"/><path fill="#00a5ff" fill-rule="evenodd" d="m5 19.186-2.027 1.19c-.327.19-.858.508-1.12.78a3.396 3.396 0 0 0-.9 1.938c-.03.247-.03.651-.03.9V27.5H3.5v-3.506c0-.249-.001-.653.03-.9.092-.746.411-1.43.9-1.938.176-.182.46-.373.736-.545a3.992 3.992 0 0 1-.133-.61H5v-.815zm8 .094V20h-.033A4 4 0 0 1 11 22.965a3.984 3.984 0 0 1-.71.315 3.994 3.994 0 0 0 3.286-.315 3.991 3.991 0 0 0 1.81-2.273c-.069-.043-.139-.096-.195-.129L13 19.279Z"/><path fill="#fff" fill-rule="evenodd" d="m5 19.186-2.027 1.19c-.327.19-.858.508-1.12.78a3.396 3.396 0 0 0-.9 1.938c-.03.247-.03.651-.03.9V27.5H2.5v-3.506c0-.249-.001-.653.03-.9.092-.746.411-1.43.9-1.938.261-.272.792-.59 1.119-.78l.5-.294c-.004-.028-.012-.054-.016-.082H5V19.186zm8 .094V20h-.033A4 4 0 0 1 11 22.965a3.98 3.98 0 0 1-1.21.45c.94.188 1.93.044 2.786-.45a3.994 3.994 0 0 0 1.936-2.8L13 19.278Z"/><path fill="#fff" fill-rule="evenodd" d="M6.926 15.377V16.5c0 .965-.512 1.856-1.344 2.344l-2.61 1.531c-.326.191-.857.51-1.118.781a3.396 3.396 0 0 0-.9 1.938c-.032.247-.03.651-.03.9V27.5H2.5v-3.506c0-.249-.003-.653.027-.9.093-.746.414-1.43.903-1.938.261-.272.79-.59 1.117-.78l2.611-1.532A2.716 2.716 0 0 0 8.502 16.5v-1.123H6.926z"/><path fill="#fd5b6a" d="M9 4.5c-2.77 0-5 2.23-5 5v10.272l1.582-.928A2.716 2.716 0 0 0 6.926 16.5v-1.123h.076C6.392 14.615 6 13.572 6 12.567V9.158l.025-.283c1.02 0 2.839.247 3.545-.367a.587.587 0 0 1 .385-.148c.136 0 .272.05.385.148.456.397 1.046.608 1.654.768l.004.988c0 .01-.002.01-.002.022l.002.02v2.26c0 1.05-.426 2.137-1.084 2.905v1.492c0 .678.36 1.306.945 1.648l2.106 1.233h.033V9.5A4.988 4.988 0 0 0 9 4.5z"/><path fill="#fe2b70" d="M9 4.5c-2.77 0-5 2.23-5 5v10.272l1.582-.928c.155-.091.286-.208.418-.324V9.158l.025-.283h.018A4.986 4.986 0 0 1 9.99 4.602 5.042 5.042 0 0 0 9 4.5zm2.955 3.86a.586.586 0 0 0-.385.148c-.185.16-.449.26-.752.322.36.199.762.337 1.176.446l.004.988c0 .01-.002.01-.002.022l.002.02v2.26c0 1.05-.426 2.137-1.084 2.905v1.492c0 .678.36 1.306.945 1.649l2.106 1.232h.033v-1.15l-.139-.082a1.91 1.91 0 0 1-.945-1.649v-1.492c.658-.768 1.084-1.855 1.084-2.904v-2.26c0-.011-.002-.011-.002-.021l.002-.022-.004-.81c0-.062-.009-.121-.012-.182-.603-.16-1.189-.37-1.642-.764a.588.588 0 0 0-.385-.148zm-3.93.515-.004.041c.152 0 .299-.014.442-.029a6.723 6.723 0 0 0-.438-.012z"/><path fill="#fff" d="M9 4.5c-2.77 0-5 2.23-5 5v10.272l1-.586V9.5a4.986 4.986 0 0 1 4.404-4.96C9.27 4.527 9.138 4.5 9 4.5zm1.955 3.86a.586.586 0 0 0-.385.148c-.035.031-.084.05-.125.076.441.344.985.543 1.55.691l.003.989c0 .01-.002.01-.002.022l.002.02v2.26c0 1.05-.426 2.137-1.084 2.905v1.492c0 .678.36 1.306.945 1.648l2.106 1.233h.033v-.567l-1.139-.666a1.91 1.91 0 0 1-.945-1.648V15.47c.658-.768 1.084-1.855 1.084-2.905v-2.26l-.002-.02.002-.022-.004-.989c-.608-.16-1.198-.37-1.654-.767a.588.588 0 0 0-.385-.149zm-3.93.515-.002.025c.412.017.791.031 1.202 0-.424-.014-.876-.029-1.2-.029z"/><path fill="none" stroke="#000" d="M10.915 15.378v1.585c0 .678.36 1.305.945 1.648l3.332 1.953c.19.11.496.295.661.44.66.573 1.06 1.459 1.071 2.411V27.5h-16v-3.505c0-.249-.003-.653.028-.9a3.4 3.4 0 0 1 .901-1.939c.262-.272.792-.59 1.119-.781l2.611-1.53A2.718 2.718 0 0 0 6.927 16.5v-1.123zM3.425 27.5v-2m11 2v-2"/><path fill="none" stroke="#000" d="M4 19.844V9.5c0-2.77 2.23-5 5-5a5.01 5.01 0 0 1 2.47.649A4.988 4.988 0 0 1 14 9.5v10.344"/><path fill="#f8e71b" d="M10.34 8.508a.575.575 0 0 0-.77 0c-.706.614-2.525.367-3.544.367L6 9.16v3.408c0 1.879 1.338 3.923 2.999 3.923s2.999-2.044 2.999-3.923v-2.26l-.001-.021v-.021l-.003-.99c-.608-.16-1.198-.37-1.655-.767z"/><path fill="#fff" d="M9.955 8.36a.586.586 0 0 0-.385.148c-.27.235-.703.344-1.191.389.79.034 1.649.063 2.271-.164a2.61 2.61 0 0 1-.31-.225.588.588 0 0 0-.385-.148zm-3.93.515L6 9.158v3.408c0 1.88 1.337 3.925 2.998 3.925.261 0 .51-.066.752-.159-1.294-.495-2.248-2.181-2.248-3.765V9.158l.021-.246c-.535-.01-1.094-.037-1.498-.037z"/><path fill="none" stroke="#000" stroke-linecap="round" stroke-linejoin="round" d="M10.34 8.508a.575.575 0 0 0-.77 0c-.706.614-2.525.367-3.544.367L6 9.16v3.408c0 1.879 1.338 3.923 2.999 3.923s2.999-2.044 2.999-3.923v-2.26l-.001-.021v-.021l-.003-.99c-.608-.16-1.198-.37-1.655-.767zM13 19.5a4 4 0 0 1-2.046 3.49 4 4 0 0 1-4.045-.08 4 4 0 0 1-1.906-3.568"/></svg>